<?xml version="1.0" standalone="no"?>
<!DOCTYPE svg PUBLIC "-//W3C//DTD SVG 20010904//EN"
 "http://www.w3.org/TR/2001/REC-SVG-20010904/DTD/svg10.dtd">
<svg version="1.0" xmlns="http://www.w3.org/2000/svg"
 width="256.000000pt" height="256.000000pt" viewBox="0 0 256.000000 256.000000"
 preserveAspectRatio="xMidYMid meet">

<g transform="translate(0.000000,256.000000) scale(0.100000,-0.100000)"
fill="#000000" stroke="none">
<path d="M815 2239 c-66 -39 -105 -98 -107 -163 -2 -121 90 -207 208 -193 164
18 221 232 89 333 -31 24 -49 29 -104 32 -38 1 -75 -2 -86 -9z"/>
<path d="M1235 2035 c-56 -15 -115 -70 -115 -108 0 -70 66 -93 206 -72 217 33
231 35 290 25 32 -6 62 -10 67 -10 4 0 7 -14 7 -30 0 -71 47 -129 121 -152 51
-15 105 1 144 42 25 26 30 40 33 95 4 57 1 70 -21 104 -44 66 -130 89 -202 55
-31 -15 -35 -14 -84 10 -28 15 -76 33 -108 41 -71 19 -269 19 -338 0z m654
-90 c16 -8 36 -30 45 -49 17 -35 22 -96 8 -96 -15 0 -32 24 -32 47 0 31 -34
63 -67 63 -16 0 -37 7 -47 15 -19 14 -18 15 5 24 34 14 56 13 88 -4z m-18 -72
c13 -16 12 -17 -3 -4 -10 7 -18 15 -18 17 0 8 8 3 21 -13z m-88 -58 c25 -28
38 -35 68 -35 20 0 42 -7 49 -15 17 -21 -27 -40 -74 -31 -32 6 -86 54 -86 76
0 5 -3 15 -6 24 -11 28 17 17 49 -19z m52 -13 c-3 -3 -11 0 -18 7 -9 10 -8 11
6 5 10 -3 15 -9 12 -12z"/>
<path d="M904 1826 c-17 -8 -71 -41 -120 -74 -163 -111 -249 -142 -394 -142
-36 0 -92 5 -124 11 -32 6 -61 7 -64 4 -14 -14 52 -55 126 -79 170 -53 295
-56 427 -9 193 70 285 146 285 237 0 59 -63 84 -136 52z"/>
<path d="M1200 1418 c-26 -12 -88 -64 -146 -122 -194 -196 -261 -352 -297
-696 l-12 -115 -125 -11 c-347 -31 -550 -90 -550 -159 0 -70 184 -121 580
-162 251 -25 1007 -25 1260 0 303 31 496 72 554 118 34 26 34 62 0 88 -85 67
-432 121 -867 137 l-189 7 -49 74 c-68 101 -109 190 -109 237 0 44 42 144 107
251 44 74 67 148 58 190 -3 14 -7 35 -10 48 -2 13 -20 41 -40 63 -20 21 -42
47 -50 57 -20 23 -61 22 -115 -5z m-131 -435 c-5 -21 -9 -72 -9 -113 0 -104
25 -151 139 -272 l93 -98 -165 0 c-90 0 -199 -3 -242 -7 l-78 -6 7 29 c17 69
111 286 158 364 41 69 94 140 104 140 1 0 -2 -17 -7 -37z m314 -553 c52 -39
125 -75 134 -67 2 3 -9 20 -24 38 -65 77 -72 71 78 64 462 -21 821 -77 874
-135 15 -17 15 -19 -7 -34 -88 -62 -400 -107 -881 -128 -604 -25 -1306 37
-1435 128 -19 13 -21 19 -11 30 37 44 264 93 557 119 l72 7 0 -73 c0 -40 3
-69 7 -65 4 3 16 37 28 74 l21 67 109 6 c61 3 181 6 268 7 l158 2 52 -40z"/>
</g>
</svg>
